PathFileType	4	(X/Y/Z)	OpenSim_Sub08_EMGBaseline_Magnet.trc
DataRate	CameraRate	NumFrames	NumMarkers	Units	OrigDataRate	OrigDataStartFrame	OrigNumFrames
100	100	20	8	m	100	1664	6654
Frame#	Time	torso_imu_offset_imu	pelvis_imu_offset_imu	tibia_r_imu_offset_imu	femur_r_imu_offset_imu	tibia_l_imu_offset_imu	femur_l_imu_offset_imu	toes_r_imu_offset_imu	toes_l_imu_offset_imu
				X1	Y1	Z1	X2	Y2	Z2	X3	Y3	Z3	X4	Y4	Z4	X5	Y5	Z5	X6	Y6	Z6	X7	Y7	Z7	X8		Y8	Z8	

1664	16.63000000	-0.94191261	-0.13929077	0.08200422	-0.65983034	0.15869424	-0.66301810	-0.76571250	-0.27388191	-0.07230119	-0.85109769	-0.13978065	-0.07163445	-0.56458372	0.49838734	0.35199468	-0.65131401	0.30596926	0.42906726	-0.51727993	-0.10915111	-0.59154375	-0.74171201	-0.19468364	-0.39287268
1665	16.64000000	-0.94169000	-0.13634291	0.08123216	-0.66081755	0.15836798	-0.66099247	-0.77220509	-0.25625044	-0.07859489	-0.84926995	-0.14300244	-0.07811801	-0.56146183	0.50525470	0.34837528	-0.64417269	0.30522343	0.43380407	-0.50854604	-0.08383984	-0.60586328	-0.74787590	-0.18945326	-0.38969692
1666	16.65000000	-0.94069730	-0.13492703	0.08575966	-0.65457477	0.15579677	-0.66018429	-0.77998877	-0.24496561	-0.08628678	-0.84473011	-0.15046571	-0.08064072	-0.55009702	0.50892591	0.34903037	-0.63816844	0.30862025	0.43199506	-0.50526806	-0.06767621	-0.61840053	-0.75268147	-0.18715475	-0.39171537
1667	16.66000000	-0.94260595	-0.13669519	0.08569891	-0.65261146	0.15601433	-0.66351350	-0.78796709	-0.22347283	-0.08879733	-0.84059339	-0.15420339	-0.08776396	-0.54651669	0.51959421	0.35097439	-0.63628573	0.31871998	0.44017162	-0.49371092	-0.05344657	-0.62593577	-0.76148865	-0.18689491	-0.39091245
1668	16.67000000	-0.93833755	-0.13594596	0.08557999	-0.65358701	0.15982823	-0.66913187	-0.79046170	-0.21353345	-0.09355695	-0.83988821	-0.15653181	-0.09100527	-0.54426071	0.52405035	0.34867995	-0.63546543	0.32473087	0.43882405	-0.48494670	-0.03477072	-0.62971976	-0.77307096	-0.18448118	-0.38236798
1669	16.68000000	-0.94038777	-0.13333930	0.08898374	-0.65490464	0.15338132	-0.66440531	-0.79067908	-0.20279403	-0.09670045	-0.83934471	-0.15814323	-0.09706448	-0.54359058	0.52642446	0.34735319	-0.63580370	0.32571025	0.43639623	-0.47734817	-0.02494176	-0.63101960	-0.77832443	-0.18234818	-0.37951004
1670	16.69000000	-0.94083151	-0.13652388	0.08490914	-0.65057715	0.15312621	-0.66351747	-0.79051694	-0.19242185	-0.09921570	-0.83978894	-0.16659065	-0.09760536	-0.53516109	0.53679983	0.34715338	-0.63393026	0.33075936	0.44186150	-0.47304831	-0.02177856	-0.63471456	-0.78353372	-0.18103864	-0.37524971
1671	16.70000000	-0.93864091	-0.13727406	0.08488240	-0.64751412	0.15134349	-0.67127163	-0.79271729	-0.18794066	-0.09816659	-0.83905192	-0.17248416	-0.09749346	-0.52449461	0.54347852	0.35025046	-0.62638267	0.33945095	0.43827060	-0.47139401	-0.01701716	-0.63783219	-0.79487514	-0.18089965	-0.36545088
1672	16.71000000	-0.94059902	-0.13875192	0.08264850	-0.64525205	0.14954922	-0.67080077	-0.79510716	-0.19287541	-0.09826571	-0.83947037	-0.17364673	-0.10297412	-0.52519117	0.54804702	0.34948400	-0.62646033	0.34533901	0.43943914	-0.46983707	-0.00919858	-0.63986651	-0.79820627	-0.18317874	-0.36109829
1673	16.72000000	-0.94494849	-0.13776540	0.08479135	-0.64815352	0.15412021	-0.67698671	-0.79122194	-0.19298814	-0.08962427	-0.83376465	-0.17620773	-0.10417477	-0.51900203	0.55615756	0.34886653	-0.62602154	0.35310365	0.43852269	-0.47171724	-0.00395937	-0.63764311	-0.80349736	-0.18578412	-0.34820305
1674	16.73000000	-0.94419265	-0.13727472	0.08892727	-0.64455503	0.15130748	-0.67505710	-0.79370017	-0.19157103	-0.09111128	-0.83238398	-0.17700123	-0.09866344	-0.51296706	0.56354969	0.35031282	-0.62290983	0.35455184	0.43878710	-0.47085433	-0.00459075	-0.63922752	-0.80928026	-0.18174972	-0.33453951
1675	16.74000000	-0.93980711	-0.13720470	0.08459861	-0.64086886	0.15225465	-0.67176063	-0.79564820	-0.20105792	-0.09008801	-0.83396186	-0.17905441	-0.09868182	-0.50989397	0.56691653	0.35382478	-0.61774426	0.35890386	0.43413060	-0.47471278	-0.00579286	-0.63987628	-0.81162803	-0.18483400	-0.32658559
1676	16.75000000	-0.93964118	-0.13510673	0.08220007	-0.64414582	0.15067893	-0.67424323	-0.78799879	-0.21006281	-0.08641982	-0.83471600	-0.18072296	-0.09642925	-0.50142379	0.57379554	0.35068721	-0.61652566	0.36729891	0.43268964	-0.48488826	-0.01155095	-0.63106590	-0.82073497	-0.19176790	-0.31616165
1677	16.76000000	-0.94242868	-0.13960227	0.08455137	-0.63944041	0.15144125	-0.68234224	-0.78557275	-0.21539332	-0.08599254	-0.83513548	-0.18081496	-0.09147189	-0.49094809	0.58610214	0.34629843	-0.61829615	0.37160745	0.43440900	-0.49035614	-0.01159555	-0.62055990	-0.82039000	-0.19556792	-0.30010045
1678	16.77000000	-0.94266037	-0.13753512	0.07993249	-0.63942660	0.15384260	-0.67707355	-0.78077221	-0.22965401	-0.08326577	-0.83442670	-0.18381538	-0.08224856	-0.48692629	0.59407026	0.34258656	-0.61415660	0.38157484	0.43361677	-0.50100893	-0.01083485	-0.61447219	-0.82259229	-0.20552620	-0.28361115
1679	16.78000000	-0.94112753	-0.14131023	0.07712289	-0.64461533	0.15100045	-0.67566418	-0.77608440	-0.24225266	-0.07908698	-0.83552552	-0.19037181	-0.06949450	-0.47451783	0.59926836	0.33980458	-0.61310371	0.38014805	0.43062842	-0.50917435	-0.02369266	-0.60498289	-0.82812572	-0.20783434	-0.26977464
1680	16.79000000	-0.94540072	-0.14537136	0.07474252	-0.63966801	0.15416665	-0.68062347	-0.78210099	-0.24014875	-0.07773782	-0.83225188	-0.19947310	-0.05614414	-0.46594425	0.60967121	0.33659718	-0.61194414	0.38462360	0.42841808	-0.52604835	-0.03573495	-0.59305117	-0.82639964	-0.21349527	-0.24792031
1681	16.80000000	-0.94047260	-0.14442722	0.07893345	-0.63769858	0.15980366	-0.67790129	-0.78382284	-0.24002632	-0.07752247	-0.83134808	-0.20317238	-0.05494249	-0.46259135	0.62086043	0.33144523	-0.60814936	0.39207166	0.42195658	-0.54302222	-0.03452886	-0.57771495	-0.83256765	-0.22356943	-0.23128189
1682	16.81000000	-0.93798730	-0.14134832	0.08154855	-0.63798939	0.16007228	-0.67899522	-0.78169129	-0.24302616	-0.06889297	-0.82986100	-0.20998260	-0.04755709	-0.44770621	0.63193081	0.33522231	-0.61039652	0.39625026	0.41654919	-0.54980783	-0.03575526	-0.56505092	-0.83239358	-0.22691479	-0.21337896
1683	16.82000000	-0.94523944	-0.14661294	0.07556340	-0.63633288	0.16223892	-0.67648233	-0.78031512	-0.24708120	-0.05899336	-0.83009072	-0.21746796	-0.03431426	-0.43692615	0.64229066	0.33147003	-0.60675311	0.40612660	0.41179800	-0.56374311	-0.05229620	-0.55353289	-0.82997751	-0.23020274	-0.18629141
